<svg xmlns="http://www.w3.org/2000/svg">
  <g id="duverger-outline">
    <g>
      <path class="st0" d="M39.9,41.1c0,8.3-6.8,15.1-15.1,15.1c-8.3,0-15.1-6.8-15.1-15.1c0-8.3,6.8-15.1,15.1-15.1
        C33.2,26,39.9,32.7,39.9,41.1z"/>
      <polyline class="st0" points="41.1,24.9 17.6,1.4 1.4,17.6 9.5,25.8    "/>
      <polyline class="st0" points="15,30 25.5,40.5 35.2,30.8     "/>
    </g>
  </g>
  <g id="icon-parameters">
    <g>
      <line class="st0" x1="5.6" y1="0" x2="5.6" y2="10"/>
      <line class="st0" x1="5.6" y1="19" x2="5.6" y2="47"/>
      <circle class="st0" cx="6" cy="13.8" r="5"/>
      <line class="st0" x1="25.6" y1="0" x2="25.6" y2="29"/>
      <line class="st0" x1="25.6" y1="38" x2="25.6" y2="47"/>
      <circle class="st0" cx="26" cy="32.8" r="5"/>
      <line class="st0" x1="46.6" y1="0" x2="46.6" y2="14"/>
      <line class="st0" x1="46.6" y1="23" x2="46.6" y2="47"/>
      <circle class="st0" cx="47" cy="19.8" r="5"/>
    </g>
  </g>
  <g id="icon-formulas">
    <path fill="none" stroke-miterlimit="10" d="M23,5.7c0,0-8.2,15.1,0,33.6"/>
    <path fill="none" stroke-miterlimit="10" d="M50,5.7c0,0,8.2,15.1,0,33.6"/>
    <line fill="none" stroke-miterlimit="10" x1="30" y1="16.1" x2="43.4" y2="31"/>
    <line fill="none" stroke-miterlimit="10" x1="43.4" y1="16.1" x2="30" y2="31"/>
    <path fill="none" stroke-miterlimit="10" d="M4.4,35.7V4.9c0,0,0.7-3.9,6.7-3.9"/>
    <line fill="none" stroke-miterlimit="10" x1="11.5" y1="15.3" x2="0" y2="15.3"/>
  </g>
  <g id="icon-team">
    <g>
      <circle fill="none" stroke-miterlimit="10" cx="14.2" cy="30.8" r="13.2"/>
      <circle fill="none" stroke-miterlimit="10" cx="54.4" cy="30.8" r="13.2"/>
      <path fill="none"   stroke-miterlimit="10" d="M27.3,30.8c0,0,7-7,13.9,0"/>
      <path fill="none"   stroke-miterlimit="10" d="M1.4,25.3l9.3-20.9c0,0,3.9-2.9,10.2-3.4"   />    
      <path fill="none"   stroke-width="2" stroke-miterlimit="10" d="M65.9,25.3l6.8-19.9c0,0,3.9-2.9,10.2-3.4"/>
    </g>
  </g>
  <g id="icon-duverger">
      <path fill="#F6DA3C" d="M146.928,151.22c0,31.771-25.752,57.521-57.523,57.521c-31.773,0.01-57.521-25.751-57.521-57.521
        c0-31.765,25.748-57.515,57.521-57.522C121.176,93.697,146.928,119.455,146.928,151.22z"/>
      <path fill="#EF555A" d="M48.732,110.548l40.672,40.672l40.672-40.672c-10.406-10.41-24.786-16.851-40.672-16.851
        C73.52,93.697,59.137,100.138,48.732,110.548z"/>
      <path fill="#52C0AE" d="M89.404,81.375c19.252-0.002,36.717,7.832,49.369,20.478l12.449-12.445L61.82,0L0,61.82l40.037,40.036
        C52.686,89.207,70.15,81.373,89.404,81.375z"/>
  </g>
  <g id="icon-duverger-text">
    <path fill="#FFFFFF" d="M0,1.4h30c16.7,0,30.9,6.2,30.9,25.7C60.9,46,46.1,54.199,30,54.199h-9.5v24.502H0V1.4z M29,38.1
      c8.1,0,11.9-4,11.9-11c0-6.9-4.3-9.5-11.9-9.5h-8.6v20.5H29z"/>
    <path fill="#FFFFFF" d="M111.2,78.802L97.9,52.899H90v25.902H69.5V1.4h29.3c16.7,0,30.9,5.7,30.9,25c0,11.1-5,18.299-12.5,22.399
      L134,78.802H111.2z M90,36.699h7.4c8.1,0,12.4-3.6,12.4-10.199c0-6.7-4.3-8.8-12.4-8.8H90V36.699z"/>
    <path fill="#FFFFFF" d="M138.5,39.799C138.5,14.3,153,0,174.4,0C195.8,0,210.3,14.4,210.3,39.799
      c0,25.502-14.5,40.502-35.899,40.502C153,80.201,138.5,65.201,138.5,39.799z M189.4,39.799c0-14-5.7-22.1-15-22.1
      c-9.301,0-15,8.1-15,22.1c0,14,5.699,22.902,15,22.902C183.7,62.602,189.4,53.799,189.4,39.799z"/>
    <path fill="#FFFFFF" d="M224.5,55.199c2.6,5.002,6.4,7.402,9.8,7.402c5.5,0,8.601-2.601,8.601-12.402V1.4h20.5v50.5
      c0,15.502-8.301,28.302-26.2,28.302c-12.601,0-20.7-4.8-26.4-14.6L224.5,55.199z"/>
    <path fill="#FFFFFF" d="M276,1.4h50v17.1h-29.5v12.1h25.2v17.1h-25.2v13.802h30.7v17.101H276V1.4z"/>
    <path fill="#FFFFFF" d="M370.7,0c9.8,0,18.1,4.8,23.6,10.2l-11.2,12.6c-3.8-3.3-7.1-5.2-12.1-5.2c-9.3,0-17.1,8.3-17.1,22.399
      c0,14.5,6.699,22.602,16.699,22.602c5.9,0,10.2-2.601,13.601-6.202l11.2,12.402c-6.5,7.6-15.5,11.399-25,11.399
      c-20.2,0-37.4-13.1-37.4-39.502C332.8,14.8,350.7,0,370.7,0z"/>
    <path fill="#FFFFFF" d="M421.5,18.6H401V1.4h61.4v17.1h-20.5v60.201h-20.4V18.6z"/>
    <path fill="#FFFFFF" d="M0,106.001h22.9c23.6,0,39.8,11,39.8,38.3c0,27.399-16.2,39-38.6,39h-24v-77.3H0z M21.6,167
      c11.2,0,20-4.5,20-22.6s-8.8-21.9-20-21.9h-1.2V167H21.6z"/>
    <path fill="#FFFFFF" d="M71.9,106.001h20.5V148.4c0,13.8,3.6,18.8,11.7,18.8s11.9-5,11.9-18.8v-42.399h19.8V146
      c0,26.4-10,38.801-31.7,38.801C82.4,184.801,72,172.4,72,146v-39.999H71.9z"/>
    <path fill="#FFFFFF" d="M142.4,106.001h21.7l8.101,33.8c2.1,8.199,3.6,16.199,5.7,24.5h0.5c2.1-8.301,3.699-16.301,5.699-24.5
      l7.9-33.8h20.9L190,183.4h-24.8L142.4,106.001z"/>
    <path fill="#FFFFFF" d="M220.3,106.001h50v17.1h-29.5v12.1H266v17.101h-25.2v13.8h30.7v17.3h-51.2V106.001z"/>
    <path fill="#FFFFFF" d="M324.1,183.4l-13.3-25.9H302.9v25.9h-20.4v-77.399h29.3c16.7,0,30.9,5.7,30.9,24.999
      c0,11.101-5,18.301-12.5,22.4l16.8,30H324.1z M302.9,141.301h7.399c8.101,0,12.4-3.601,12.4-10.2c0-6.7-4.3-8.8-12.4-8.8H302.9
      V141.301z"/>
    <path fill="#FFFFFF" d="M388.1,104.602c11,0,19.301,4.8,24.801,10.2L401.7,127.4c-3.8-3.3-7.101-5.199-13.3-5.199
      c-10.5,0-18.301,8.299-18.301,22.399c0,14.5,6.4,22.6,20.2,22.6c2.101,0,4.5-0.5,6-1.399v-10.7H384.9v-16.7h29.5v36.9
      c-5.7,4.8-15.7,9.5-26.7,9.5c-21.2,0-38.601-13.101-38.601-39.5C349.1,119.401,367,104.602,388.1,104.602z"/>
    <path fill="#FFFFFF" d="M425.3,106.001h50v17.1h-29.5v12.1H471v17.101h-25.2v13.8h30.7v17.3h-51.2V106.001z"/>
    <path fill="#FFFFFF" d="M527.2,183.4l-13.3-25.9H506v25.9h-20.5v-77.399h29.3c16.7,0,30.9,5.7,30.9,24.999
      c0,11.101-5,18.301-12.5,22.4l16.8,30H527.2z M506,141.301h7.4c8.1,0,12.399-3.601,12.399-10.2c0-6.7-4.3-8.8-12.399-8.8H506
      V141.301z"/>
  </g>
  <g id="icon-duverger-monotone">
    <path d="M223.462,158.023l-54.859,54.858l-54.856-54.856c-14.042,14.039-22.725,33.433-22.725,54.856
    c0,42.85,34.728,77.593,77.581,77.58c42.852,0,77.583-34.73,77.583-77.58C246.186,191.46,237.502,172.064,223.462,158.023z"/>
    <path d="M168.603,118.68c25.966-0.002,49.521,10.563,66.585,27.619l16.791-16.785L131.4,8.927L48.021,92.306
    l53.999,53.998C119.08,129.243,142.634,118.678,168.603,118.68z"/>
  </g>
  <g id="arrow">
    <polyline fill="none" stroke-miterlimit="10" points="208.037,7.075 
  65.305,149.795 208.037,292.517 "/>
  </g>
</svg>
